PathFileType	4	(X/Y/Z)	stereocamera_static.trc
DataRate	CameraRate	NumFrames	NumMarkers	Units	OrigDataRate	OrigDataStartFrame	OrigNumFrames
28.086763070077865	28.086763070077865	10	15	mm	28.086763070077865	26	203
Frame#	Time	JOINT_NECK			JOINT_RIGHT_CLAVICLE			JOINT_LEFT_CLAVICLE			JOINT_RIGHT_SHOULDER			JOINT_LEFT_SHOULDER			JOINT_RIGHT_ELBOW			JOINT_LEFT_ELBOW			JOINT_LEFT_WRIST			JOINT_RIGHT_WRIST			JOINT_SPINE_3			JOINT_SPINE_2			JOINT_SPINE_1			JOINT_PELVIS			JOINT_RIGHT_HIP			JOINT_LEFT_HIP
		X1	Y1	Z1	X2	Y2	Z2	X3	Y3	Z3	X4	Y4	Z4	X5	Y5	Z5	X6	Y6	Z6	X7	Y7	Z7	X8	Y8	Z8	X9	Y9	Z9	X10	Y10	Z10	X11	Y11	Z11	X12	Y12	Z12	X13	Y13	Z13	X14	Y14	Z14	X15	Y15	Z15

26	1749651034.854000	161.871090	5.881280	874.143200	97.611740	0.427842	955.832360	236.148850	9.859040	893.088100	22.972420	-3.942132	992.595430	301.976980	15.154585	869.385060	-33.391330	-267.595050	1036.348300	351.493330	-216.471020	819.751260	nan	nan	nan	-72.201310	-401.695900	1001.575400	158.190860	-83.382570	850.093300	153.034660	-163.271380	822.461600	150.550290	-245.507270	809.072700	146.143360	-321.853760	788.145600	62.293667	-336.414430	821.920200	237.806660	-322.416100	796.966000
27	1749651034.888000	161.743420	5.684346	873.556550	97.623880	0.528395	955.973860	236.126600	9.780899	893.063300	23.107663	-4.229814	999.089300	301.841940	14.999106	869.562000	-32.733668	-264.294680	1022.774500	351.718700	-216.370690	819.614950	nan	nan	nan	-70.674300	-402.491420	1004.824000	158.168480	-83.922670	849.973600	153.043510	-163.316730	822.496950	150.545460	-245.532510	809.040840	146.238310	-321.879270	788.125160	60.821560	-335.844400	818.143400	238.055210	-323.216470	797.858240
28	1749651034.921000	161.091340	5.707756	870.875100	97.629346	0.691429	956.148800	236.104240	9.877920	893.068700	23.362495	-4.291058	1006.752600	301.487860	15.114307	870.369100	-31.937398	-262.648940	1019.861200	351.787100	-216.008370	819.481130	nan	nan	nan	-69.961130	-404.924930	1009.063400	158.158260	-84.138950	849.983900	153.161880	-165.598770	823.204640	150.543780	-245.461080	808.995100	148.649000	-321.851970	788.201200	62.398132	-336.748060	819.506900	238.517950	-323.847470	797.714400
29	1749651034.954000	160.804480	5.829260	869.618300	97.663200	0.860214	956.212800	236.140420	10.012090	893.143830	23.226080	-3.952458	1003.656400	301.391330	15.083745	870.109500	-31.145087	-258.999300	1019.436700	351.902220	-216.900740	819.423100	nan	nan	nan	-68.585440	-402.260420	1007.093400	158.171730	-84.173960	850.047470	153.127330	-164.737580	822.965500	150.520000	-245.367700	808.951900	147.980290	-321.791770	788.287160	63.015215	-337.680700	820.845000	237.701820	-321.696370	794.969700
30	1749651034.988000	161.237120	5.915135	871.120800	97.675400	0.837743	956.246260	236.158460	10.014996	893.202000	23.426615	-3.760025	988.905550	301.388300	15.107408	869.842950	-31.191288	-261.474820	1025.102900	352.065950	-217.617780	819.369100	nan	nan	nan	-68.824260	-404.581070	1009.943100	158.177500	-84.242314	850.082700	153.102890	-164.134770	822.776900	150.516300	-245.417310	808.930600	147.429670	-321.862300	788.327800	60.465448	-336.616520	817.058700	237.467380	-322.385340	796.512600
31	1749651035.021000	160.807220	6.391972	869.674300	97.678140	0.925243	956.298770	236.161650	10.139167	893.223940	23.284612	-3.209680	988.846240	301.491950	15.620008	871.019360	-30.508406	-258.486360	1027.892500	351.689760	-217.760820	819.279430	nan	nan	nan	-68.478490	-402.304950	1006.773800	158.272340	-81.901990	850.719630	153.091420	-163.599300	822.706700	150.518150	-245.351140	808.934500	147.040400	-321.828420	788.416400	61.872046	-336.388740	819.601500	237.527970	-322.478400	797.700800
32	1749651035.055000	164.395020	6.056577	889.686600	97.684470	0.890359	956.422500	236.152680	10.148168	893.194700	23.326695	-3.095671	991.629060	301.808690	14.997706	870.605900	-30.393593	-256.790040	1024.989800	351.560650	-218.136190	818.551660	nan	nan	nan	-65.899970	-399.427000	1000.947400	158.263950	-82.648000	850.615260	153.086000	-163.330820	822.670340	150.526970	-245.386600	808.951440	146.792780	-321.870570	788.425000	nan	nan	nan	nan	nan	nan
33	1749651035.088000	163.425640	6.140962	881.852570	97.704400	0.828147	956.575600	236.164810	10.115012	893.212100	23.881895	-3.272489	992.400050	301.424700	15.251726	870.105300	-29.875645	-255.918680	1028.164700	351.846200	-218.285560	818.914200	nan	nan	nan	-63.859940	-397.039230	997.106500	158.258470	-83.295040	850.513100	154.339000	-165.455700	831.134300	150.534840	-245.453770	809.002340	146.651390	-321.932260	788.428200	62.371463	-337.578600	822.262940	237.176580	-323.034640	798.590400
34	1749651035.122000	166.356640	5.835414	897.493540	97.725350	0.813127	956.652300	236.188800	10.110900	893.251000	22.711674	-2.515241	987.641900	301.262560	15.864730	871.380500	-29.992314	-258.905650	1030.913700	351.913930	-217.956930	819.071350	nan	nan	nan	-64.185634	-401.194800	1008.252300	158.355100	-81.499410	851.083800	154.021840	-164.763440	828.289200	150.539670	-245.484550	809.070500	146.584330	-321.952460	788.442100	nan	nan	nan	nan	nan	nan
35	1749651035.155000	168.070180	3.147125	905.375840	100.307710	-1.773640	954.932630	236.197080	10.111034	893.313700	25.843225	-5.364776	982.825200	301.015760	14.356077	870.523330	-30.120792	-260.598120	1033.579600	351.908680	-217.514540	819.368100	nan	nan	nan	-63.348606	-398.180040	1003.147000	158.332140	-82.543430	850.893300	153.762490	-166.459930	826.088850	150.543150	-245.490300	809.047460	146.590490	-321.970820	788.461450	nan	nan	nan	nan	nan	nan
